<?xml version="1.0" encoding="UTF-8" standalone="no"?>
<!-- Created with Inkscape (http://www.inkscape.org/) -->

<svg
   version="1.1"
   id="arm-2-svg"
   width="78.240807"
   height="674.60364"
   viewBox="0 0 78.240807 674.60364"
   xmlns="http://www.w3.org/2000/svg"
   xmlns:svg="http://www.w3.org/2000/svg">
  <defs
     id="defs1" />
  <g
     id="g1"
     transform="translate(-11.652075,-0.19634918)">
    <path
       fill="#141414"
       stroke="#141414"
       d="m 43.436109,673.93706 c -7.558485,-2.81801 -13.242464,-7.95995 -16.515649,-14.94066 -1.649146,-3.51713 -1.916484,-5.05106 -1.916484,-10.99637 0,-5.94532 0.267338,-7.47924 1.916484,-10.99638 2.474276,-5.27688 6.51884,-9.71211 11.335627,-12.43053 2.840494,-1.60308 3.838798,-2.58878 3.838798,-3.79034 0,-1.35878 -0.613195,-1.76539 -3.756477,-2.49095 -7.642519,-1.7641 -11.27906,-5.82811 -9.058137,-10.12291 1.206719,-2.33353 5.659802,-4.8067 10.182429,-5.65515 2.713081,-0.50898 2.715726,-0.51305 1.338422,-2.05732 -6.7784,-7.60015 -10.3426,-23.52364 -10.3426,-46.20681 0,-20.15477 2.221168,-38.2168 8.057574,-65.52235 5.410342,-25.31221 5.269096,-23.45416 5.556263,-73.09091 l 0.260868,-45.09091 -2.45804,-1.56722 c -2.565721,-1.63588 -4.871211,-5.52956 -4.871211,-8.22687 0,-1.87899 1.112476,-4.17542 3.060062,-6.31675 l 1.423752,-1.56538 -2.204143,-0.48411 c -1.212279,-0.26626 -3.553992,-1.68911 -5.203807,-3.16189 -5.807057,-5.18392 -4.332269,-11.56795 3.600758,-15.58687 2.17131,-1.1 4.707333,-2 5.635607,-2 2.976827,0 4.579853,3.12693 -18.082587,-35.27273 -6.609936,-11.2 -12.462575,-21.60166 -13.005865,-23.1148 -0.937662,-2.61152 -0.872998,-2.96221 1.273966,-6.90909 2.861062,-5.25965 6.642932,-17.0277 11.148833,-34.69185 5.211555,-20.43047 7.563136,-33.75922 11.229343,-63.6479 0.220792,-1.8 1.542672,-11.71531 2.937511,-22.03403 3.34678,-24.75872 3.724691,-29.41125 5.47638,-67.420522 0.820327,-17.800001 1.800369,-37.927275 2.177871,-44.727275 0.377501,-6.8 0.692615,-16.692456 0.700252,-21.983235 0.01364,-9.4514766 0.04566,-9.6404188 1.832067,-10.8109167 1.68427,-1.10357616 1.952094,-1.10357616 3.636364,0 1.743133,1.1421451 1.818208,1.4983244 1.818815,8.6290985 6.7e-4,7.8694162 1.218773,35.3637012 3.664394,82.7105102 1.355982,26.25157 3.600666,49.26408 6.561911,67.27273 0.394643,2.4 1.017394,7.30909 1.383891,10.90909 3.399333,33.3907 14.677312,82.4268 21.9794,95.56535 1.655587,2.97888 2.075045,4.47192 1.734588,6.17421 -0.375666,1.87833 -13.465495,24.71831 -29.971603,52.29639 -2.379481,3.97559 -3.498904,6.49224 -2.955391,6.64422 0.481197,0.13454 2.183995,0.60423 3.783995,1.04374 6.3228,1.73682 10.537259,6.06191 10.542736,10.81946 0.0034,2.97287 -4.104093,7.74633 -7.681622,8.92702 -1.373613,0.45333 -2.497478,0.94796 -2.497478,1.09918 0,0.15121 0.818182,1.48059 1.818182,2.95418 1,1.47358 1.818182,3.48411 1.818182,4.46784 0,2.90656 -2.233665,6.7605 -4.892353,8.4412 l -2.479183,1.56722 0.32475,44.72727 c 0.349988,48.20328 0.408692,49.04637 4.886732,70.18183 3.457238,16.31747 4.404621,21.28155 5.738762,30.06983 2.572445,16.94528 3.138781,25.63337 2.766585,42.44183 -0.479168,21.63933 -2.990189,33.16332 -8.918377,40.92967 -2.407727,3.15429 -2.422303,3.21705 -0.847481,3.64886 4.151445,1.13832 8.386138,3.59217 9.524363,5.51903 1.156361,1.95757 1.160387,2.27987 0.05752,4.60399 -1.179285,2.48516 -4.706389,4.69125 -9.252226,5.78697 -1.441418,0.34744 -1.999239,0.93523 -1.997274,2.10459 0.0021,1.23768 0.778937,1.94172 3.275447,2.9684 4.67566,1.92284 9.891401,6.92098 12.778056,12.24495 2.384582,4.39798 2.489225,4.91199 2.489225,12.22734 0,7.31534 -0.104643,7.82936 -2.489225,12.22734 -2.83329,5.22554 -7.856745,10.09068 -12.943474,12.53554 -4.32876,2.08056 -15.040308,2.73472 -19.226077,1.17415 z m 15.068501,-6.79252 c 5.122147,-1.74529 10.747346,-7.53849 12.257436,-12.62352 1.470501,-4.95171 1.454402,-8.32369 -0.06216,-13.01945 -1.520287,-4.70729 -5.540364,-9.33705 -10.14917,-11.68839 -2.858151,-1.45818 -4.605726,-1.80657 -9.001286,-1.79446 -8.322634,0.0229 -14.275463,3.60759 -17.948852,10.80844 -4.115508,8.06752 -2.723608,16.9589 3.653061,23.33557 5.901773,5.90178 13.395374,7.65848 21.250971,4.98181 z M 55.765682,309.63638 c 18.545836,-31.60045 22.69284,-38.75912 22.69284,-39.17298 0,-0.25962 -0.785311,-2.55841 -1.745135,-5.10842 -7.256048,-19.27755 -14.553133,-58.05365 -17.168494,-91.23196 -1.014363,-12.86815 -4.083598,-36.47863 -5.123228,-39.41109 -1.705493,-4.81065 -5.859868,-4.58418 -7.178958,0.39135 -1.402806,5.29131 -4.508708,29.28201 -5.482912,42.35127 -2.226819,29.87352 -9.773952,69.37133 -16.845592,88.16117 -1.011882,2.68864 -1.700505,5.14318 -1.530274,5.45454 4.377119,8.00597 27.050076,46.02066 27.447927,46.02066 0.307375,0 2.527596,-3.35454 4.933826,-7.45454 z"
       id="path1" />
  </g>
</svg>
