<?xml version="1.0" encoding="UTF-8" standalone="no"?>
<!-- Created with Inkscape (http://www.inkscape.org/) -->

<svg
   version="1.1"
   id="svg1"
   width="42.808647"
   height="649.26892"
   viewBox="0 0 42.808647 649.26892"
   xmlns="http://www.w3.org/2000/svg"
   xmlns:svg="http://www.w3.org/2000/svg">
  <defs
     id="defs1" />
  <g
     id="g1"
     transform="translate(-4.9311356,-0.8469519)">
    <path
       fill="#000000"
       stroke="#000000"
       d="m 22.916045,649.5023 c -8.200044,-2.49434 -13.2225114,-9.22846 -13.1821152,-17.67456 0.025358,-5.30189 1.9776422,-9.63941 5.9565912,-13.23415 3.706117,-3.34826 3.765826,-5.1721 0.191277,-5.84269 -4.540887,-0.85188 -8.9355298,-3.31924 -10.1725405,-5.71136 -1.0619686,-2.05362 -1.0523416,-2.41053 0.1239353,-4.59474 1.5727337,-2.92039 4.9145292,-4.56786 11.2570302,-5.54958 l 4.863889,-0.75286 -2.452183,-4.07118 c -9.327686,-15.48605 -8.821092,-43.90106 1.333799,-74.81322 l 2.214816,-6.74205 0.622492,-247.07614 C 24.320042,6.6339713 24.418078,-0.1034498 27.493031,0.91662268 30.512682,1.9183496 30.821563,24.332583 31.270471,275.03005 l 0.422806,236.12096 1.82759,5.33359 c 4.944094,14.42871 8.308977,32.967 8.308977,45.77698 0,11.76484 -1.842899,20.42536 -6.095998,28.64752 -1.241455,2.4 -2.353261,4.56297 -2.470679,4.80661 -0.117419,0.24363 1.272187,0.64661 3.088012,0.89549 5.421409,0.74309 10.917977,4.15504 11.317377,7.02517 0.531154,3.81692 -1.898933,6.45295 -7.607764,8.2525 -5.069606,1.59805 -5.428383,3.48367 -1.21654,6.39374 5.450721,3.76605 7.891411,12.42919 5.516313,19.57994 -2.855195,8.59619 -13.124953,14.17045 -21.44452,11.63975 z m 11.51205,-8.54103 c 5.914479,-4.51119 5.926699,-13.46611 0.02437,-17.85875 -5.092694,-3.79008 -11.129846,-3.15181 -15.453347,1.63378 -2.374303,2.62807 -2.623365,3.30174 -2.619028,7.08398 0.0051,4.44301 1.310595,7.29014 4.304217,9.38696 4.140349,2.90001 9.750839,2.7996 13.743788,-0.24597 z"
       id="path1" />
  </g>
</svg>
