<?xml version="1.0" encoding="UTF-8" standalone="no"?>
<!-- Created with Inkscape (http://www.inkscape.org/) -->

<svg
   version="1.1"
   id="svg1"
   width="176.0565"
   height="677.7254"
   viewBox="0 0 176.0565 677.7254"
   xmlns="http://www.w3.org/2000/svg"
   xmlns:svg="http://www.w3.org/2000/svg">
  <defs
     id="defs1" />
  <g
     id="g1"
     transform="translate(-1.9217571,-0.72727275)">
    <path
       fill="#1B1B1B"
       stroke="#1B1B1B"
       d="M 80.706025,677.42173 C 74.253451,675.6842 67.186744,671.3822 62.849188,666.551 c -2.631482,-2.93095 -6.149095,-8.8377 -7.799254,-13.09644 -2.353442,-6.07377 -2.391519,-17.61991 -0.07905,-23.96861 3.566594,-9.79177 10.482761,-17.39823 19.734646,-21.70435 2.6,-1.21012 4.850064,-2.297 5.000142,-2.41528 0.150078,-0.11829 -2.019604,-3.58319 -4.821516,-7.69978 C 49.329596,560.1216 43.966007,514.7569 59.613433,468.50826 c 2.902133,-8.57774 3.588196,-11.41127 2.993531,-12.36363 -1.623723,-2.60042 -3.401309,-2.82847 -13.863086,-1.77852 -8.154237,0.81836 -11.244404,0.84002 -16.464139,0.1154 -7.717184,-1.07133 -10.589171,-2.72218 -12.055543,-6.92966 -0.932744,-2.67634 -0.899436,-3.20279 0.363637,-5.74754 1.871508,-3.77058 4.594617,-5.63901 8.218459,-5.63901 5.224142,0 9.006683,3.80057 9.006683,9.04961 v 2.98568 l 6.991735,-0.39892 c 7.549163,-0.43073 20.257014,-2.79208 24.792859,-4.60696 2.075636,-0.83051 3.575657,-2.28748 5.729732,-5.56529 l 2.917994,-4.44026 -3.464371,-3.79057 c -8.917295,-9.75695 -7.604795,-23.91179 2.971849,-32.05034 5.000348,-3.84768 6.001673,-6.53239 5.526415,-14.81718 -0.738053,-12.86586 -9.259515,-23.01103 -23.048111,-27.43976 -4.785948,-1.53719 -6.498993,-1.72953 -12.798268,-1.43698 -14.826431,0.68857 -27.151526,8.49413 -32.987422,20.89113 -1.664627,3.53612 -1.885245,4.93 -1.902335,12.01917 -0.02283,9.47125 1.238409,13.3577 4.767124,14.68965 1.393828,0.52611 2.530084,1.72508 3.236024,3.41463 1.934014,4.62875 -1.040065,9.14928 -6.019351,9.14928 -2.896132,0 -5.0389677,-2.25308 -7.8867577,-8.29253 -4.475836,-9.49211 -5.77552504,-18.98313 -3.864025,-28.21713 3.117282,-15.05883 16.3105567,-27.95493 33.0203797,-32.2766 6.308175,-1.63149 19.320785,-1.70155 24.90909,-0.13412 2.521514,0.70725 3.818182,0.80737 3.818182,0.29482 0,-0.42687 -1.536776,-5.42346 -3.415058,-11.10354 l -3.415058,-10.32741 2.134462,-3.08003 c 1.173955,-1.69401 6.789182,-9.3313 12.478283,-16.97174 l 10.343819,-13.89172 0.02769,-21.65082 c 0.02751,-21.51696 0.01708,-21.66761 -1.6874,-24.36768 -3.79544,-6.01237 -12.077095,-11.456 -20.166927,-13.25596 -6.252256,-1.39111 -17.376535,-0.64707 -23.646745,1.58161 -16.748439,5.95304 -26.704886,20.13465 -24.359679,34.69705 0.80293,4.98574 1.638261,6.86881 4.340937,9.78566 3.506397,3.78426 4.156745,3.80664 7.698524,0.26486 9.329128,-9.32913 23.87495,-3.65767 23.87495,9.30892 0,6.95389 -4.398824,12.47917 -11.320001,14.21883 -4.5135,1.13448 -7.377864,0.61582 -13.885708,-2.51433 -7.485285,-3.60028 -13.27564,-9.36148 -16.8163047,-16.73163 -2.421605,-5.04075 -2.807909,-6.58533 -3.114908,-12.45456 -0.555601,-10.62204 2.271489,-19.1161 9.2423777,-27.76895 5.413012,-6.71909 15.412238,-13.3424 23.987731,-15.88904 9.617281,-2.85603 22.608711,-2.69404 30.70649,0.38287 l 3.597943,1.36712 -0.09462,-35.67492 -0.09462,-35.67492 4.341371,-4.44842 4.341371,-4.44842 0.425174,-9.45455 c 0.547766,-12.18063 3.07113,-63.050017 4.473448,-90.181818 0.599551,-11.6 1.297576,-26.163637 1.551169,-32.363637 0.481129,-11.7630072 1.071082,-13.81818225 3.966604,-13.81818225 3.04037,0 3.30613,1.30755995 4.23653,20.84402625 0.49223,10.335786 1.51872,31.228702 2.28108,46.428703 0.76237,15.2 1.91401,39.090908 2.55921,53.090908 l 1.173087,25.45455 4.37726,4.46196 4.37727,4.46196 -0.11461,35.66388 -0.11462,35.66387 3.54246,-1.34602 c 5.7419,-2.18176 14.4227,-3.07429 21.3853,-2.19877 7.82202,0.98359 11.68405,2.19019 18.7101,5.84554 12.96434,6.74479 21.84053,18.66783 23.93612,32.15243 2.28033,14.67337 -5.72264,29.57572 -19.61548,36.52603 -6.42737,3.21548 -9.24004,3.73115 -14.24363,2.6114 -10.17914,-2.278 -14.90923,-14.34775 -8.73646,-22.29279 2.4802,-3.1923 4.25895,-4.45484 7.61112,-5.4023 5.37395,-1.51891 11.56872,0.64898 14.79282,5.17681 0.8344,1.1718 1.82113,2.13055 2.19274,2.13055 1.61049,0 6.51827,-5.4561 7.72826,-8.5917 2.85553,-7.39994 1.06634,-18.75125 -4.02323,-25.52483 -7.56292,-10.0653 -20.30331,-16.07507 -34.03926,-16.05666 -12.47581,0.0167 -22.41334,4.63968 -28.747097,13.37321 l -2.05701,2.8364 v 21.73435 21.73435 l 12.363637,16.7613 c 6.8,9.21871 12.36363,17.15596 12.36363,17.63833 0,0.48237 -1.62308,5.72196 -3.60685,11.64354 -2.90201,8.66252 -3.36391,10.66877 -2.36364,10.26639 3.56511,-1.43415 13.31044,-2.61388 18.33413,-2.21946 13.5349,1.06266 22.93763,5.11338 31.27996,13.4755 8.67885,8.69943 12.3564,17.25534 12.3564,28.74746 0,6.97964 -1.3487,12.68118 -4.66182,19.70747 -2.84779,6.03945 -4.99063,8.29253 -7.88676,8.29253 -3.04029,0 -4.88908,-1.23651 -6.0682,-4.05854 -1.44645,-3.46185 0.0981,-7.20743 3.57043,-8.65825 2.06096,-0.86112 2.64695,-1.65409 3.60839,-4.88292 1.84825,-6.20703 2.09878,-9.02325 1.23225,-13.85225 -2.89893,-16.15535 -16.82006,-27.73907 -34.52156,-28.72526 -22.3407,-1.24465 -38.932847,14.77485 -36.389227,35.13332 0.5516,4.41488 0.68356,4.59189 6.860297,9.20214 9.44532,7.0499 10.78666,21.71336 2.81468,30.77001 -2.09902,2.38461 -2.79677,3.68787 -2.32439,4.34151 0.37125,0.51371 1.9841,2.93518 3.5841,5.38104 2.55697,3.90876 3.34923,4.58223 6.54545,5.56399 5.62122,1.72665 19.62678,3.96703 24.79954,3.96703 h 4.65501 v -2.58157 c 0,-5.22966 3.78182,-9.25314 8.69737,-9.25314 8.18357,0 12.38106,9.27375 6.74741,14.90741 -1.69241,1.69241 -3.22508,2.25431 -8.70828,3.19257 -5.88768,1.00748 -7.87079,1.02228 -17.21197,0.1285 -8.80394,-0.84238 -10.86441,-0.84942 -12.4047,-0.0424 -1.01591,0.53228 -1.84711,1.49256 -1.84711,2.13395 0,0.64139 1.28051,4.35783 2.84556,8.25876 12.11281,30.19132 13.05881,65.04539 2.61504,96.34681 -5.06825,15.19025 -11.42978,27.76271 -20.01567,39.55751 l -3.38377,4.64841 5.59827,2.80202 c 6.31364,3.16008 12.10666,8.51528 15.78178,14.58903 2.66789,4.40912 5.28607,13.70423 5.28607,18.76667 0,5.20739 -2.5934,14.19913 -5.45304,18.9066 -4.94716,8.14392 -14.7366,15.34353 -23.658097,17.39929 -4.55296,1.04912 -13.447611,0.88155 -17.979286,-0.33872 z m 20.675585,-11.24335 c 6.08992,-2.7833 10.63551,-7.15277 13.50578,-12.9825 2.165,-4.39727 2.36359,-5.38245 2.36359,-11.72551 0,-5.97878 -0.26435,-7.48881 -1.93484,-11.05228 -2.28017,-4.86403 -6.97412,-10.18756 -11.13046,-12.62334 -4.240487,-2.48509 -12.198667,-4.18765 -16.712781,-3.57551 -9.708727,1.31658 -18.01918,7.28784 -21.930319,15.75748 -1.859512,4.02681 -2.109771,5.3883 -2.109771,11.47784 0,5.97418 0.26375,7.47182 1.949131,11.06769 6.549378,13.9735 22.262945,19.93429 35.99967,13.65613 z m -5.933947,-76.28637 c 5.399767,-3.09731 9.053217,-7.53095 13.245327,-16.07381 7.19808,-14.66856 11.18178,-29.51297 12.65307,-47.14896 1.93432,-23.18624 -2.99308,-48.26286 -13.36385,-68.01158 -3.64455,-6.94021 -7.68189,-11.27955 -13.003547,-13.97624 -3.51296,-1.78015 -4.08192,-1.87155 -6.427272,-1.03243 -5.284974,1.89086 -8.262114,4.66007 -11.425392,10.6274 -6.083673,11.4765 -11.067208,25.80865 -14.224064,40.90701 -1.394575,6.66986 -1.617338,10.01175 -1.629982,24.45298 -0.01644,18.77108 0.906491,25.12074 5.840687,40.18351 2.830142,8.63966 8.822143,21.70304 11.663768,25.4286 2.179492,2.85746 8.63076,6.73787 11.201855,6.73787 1,0 3.46123,-0.94245 5.4694,-2.09435 z m -1.39323,-243.02186 c 0.8419,-0.31459 4.74858,-4.93453 8.681517,-10.26652 3.93294,-5.33199 7.8964,-10.69236 8.80769,-11.91192 l 1.65688,-2.21739 -11.59475,-15.82779 -11.594767,-15.82778 -5.77573,7.86335 c -15.508354,21.11382 -17.400694,23.87257 -16.855975,24.57357 0.318122,0.40938 4.337848,5.83728 8.932724,12.06198 9.794422,13.26857 11.01799,14.06526 17.742411,11.5525 z m 2.2041,-121.84759 6.083357,-5.5229 V 188.72728 157.9549 l -6.170227,-5.60177 -6.17024,-5.60177 -6.193401,5.62279 -6.193396,5.62279 -0.01126,30.6379 -0.01126,30.63789 6.011261,5.60473 c 3.306193,3.0826 6.137386,5.61896 6.291526,5.63636 0.15415,0.0174 3.01779,-2.45367 6.36364,-5.49126 z"
       id="path1" />
  </g>
</svg>
