<?xml version="1.0" encoding="UTF-8" standalone="no"?>
<!-- Created with Inkscape (http://www.inkscape.org/) -->

<svg
   version="1.1"
   id="svg1"
   width="244.23923"
   height="678.19733"
   viewBox="0 0 244.23923 678.19733"
   xmlns="http://www.w3.org/2000/svg"
   xmlns:svg="http://www.w3.org/2000/svg">
  <defs
     id="defs1" />
  <g
     id="g1"
     transform="translate(-294.88345,-3.0263668)">
    <path
       fill="#050100"
       stroke="#050100"
       d="m 409.67084,680.56324 c -6.29146,-1.44722 -10.891,-4.11837 -16.00001,-9.29187 -7.94936,-8.04971 -12.0772,-18.19583 -12.85872,-31.60642 -0.75098,-12.88668 2.80779,-25.14014 10.12716,-34.86952 2.10236,-2.7946 5.3359,-6.19991 7.18564,-7.56737 l 3.36316,-2.48629 -2.99536,-2.28464 c -5.546,-4.23007 -8.38235,-11.83537 -6.93348,-18.59121 0.43017,-2.00583 1.26827,-4.1331 1.86245,-4.72728 1.29973,-1.29973 4.71019,-1.41928 5.92188,-0.20759 1.3125,1.3125 1.04941,5.25033 -0.48177,7.21101 -0.74498,0.95395 -1.58679,2.47577 -1.87069,3.38183 -0.74748,2.38553 1.95374,6.33603 5.92285,8.66208 4.34624,2.54707 12.07838,2.73488 16.62468,0.40382 5.43165,-2.78502 10.29476,-9.54897 11.47329,-15.95787 0.52887,-2.87601 -1.14666,-4.9245 -3.4495,-4.21733 -7.1651,2.20028 -10.45015,1.7518 -14.73674,-2.01187 -4.68017,-4.10925 -6.04556,-10.88903 -3.14954,-15.63896 1.0546,-1.7297 1.2038,-2.45214 0.54274,-2.62801 -0.50143,-0.13341 -2.54804,-0.62341 -4.54804,-1.08891 -13.08737,-3.04605 -24.97157,-14.83574 -27.93798,-27.71579 -1.06761,-4.63552 -0.96616,-15.18527 0.18247,-18.97532 3.68988,-12.1752 13.29007,-22.43405 24.21698,-25.87845 3.46788,-1.09315 3.93285,-1.45559 3.52567,-2.74818 -1.55628,-4.94028 -2.51133,-9.97329 -2.52124,-13.28668 l -0.0114,-3.79772 -3.38105,1.79772 c -4.51786,2.40217 -11.9662,2.51983 -16.46611,0.2601 -10.57462,-5.31026 -16.12255,-15.6497 -11.09499,-20.67726 2.69595,-2.69595 6.94542,-2.49188 9.42295,0.4525 2.25642,2.6816 2.41066,5.62247 0.42712,8.14413 l -1.4557,1.85063 2.23878,1.88381 c 5.61428,4.7241 15.95344,0.2724 23.84681,-10.26766 l 3.58904,-4.79246 -2.135,-1.79648 c -2.97911,-2.50676 -4.43241,-5.66202 -4.43241,-9.62323 0,-4.16706 1.49972,-7.19352 4.9905,-10.07091 l 2.67118,-2.20181 -0.46111,-5.31819 c -0.50313,-5.80276 -2.48183,-13.44007 -4.48643,-17.31653 -1.76742,-3.41782 -7.87223,-9.71906 -11.905,-12.28806 -7.89902,-5.03191 -18.37379,-6.57413 -24.82313,-3.65475 -4.49523,2.03484 -6.89961,4.529 -8.74207,9.06852 -0.86077,2.1208 -2.02532,4.03263 -2.58789,4.24851 -1.10119,0.42257 -1.2511,0.2799 -4.86788,-4.63301 -1.31881,-1.79143 -3.99724,-4.24598 -5.95206,-5.45455 -3.18701,-1.97037 -4.16123,-2.1974 -9.42943,-2.1974 -6.91047,0 -11.33132,1.77385 -15.73829,6.31494 -5.1507,5.30745 -6.43753,9.69044 -5.40577,18.41233 0.8058,6.81171 -3.88362,12.00238 -10.83871,11.99728 -9.77443,-0.007 -14.03729,-8.54065 -9.26292,-18.54273 7.58815,-15.89679 23.61529,-27.81161 41.12123,-30.57014 l 2.84162,-0.44777 -3.93253,-2.232 c -2.16289,-1.2276 -6.73324,-5.04857 -10.15632,-8.49105 -10.25248,-10.31057 -15.44404,-22.57336 -15.42759,-36.44086 0.01,-8.3104 0.92396,-12.49827 4.23114,-19.38476 2.94297,-6.1281 8.90907,-12.48574 15.2442,-16.24465 3.59981,-2.13592 5.10617,-2.5803 9.49857,-2.8021 8.29584,-0.41892 14.55789,3.1157 18.32652,10.34442 3.92687,7.53224 1.97578,18.04158 -4.34057,23.38011 -4.59015,3.87955 -7.79115,4.78897 -16.07879,4.56805 -9.34718,-0.24917 -10.84098,0.49795 -12.51599,6.25979 -0.9588,3.29815 -1.00551,4.71792 -0.29033,8.82477 1.54887,8.89431 7.28274,17.62245 13.42389,20.43396 7.71393,3.53155 24.75036,4.18382 30.51637,1.16836 5.85558,-3.0623 13.9405,-13.38558 17.10296,-21.83801 3.60671,-9.6398 4.47719,-19.36241 2.48904,-27.80085 -1.24961,-5.30381 -4.03833,-11.65059 -5.73953,-13.06246 -0.61886,-0.5136 -1.12519,-1.2305 -1.12519,-1.59309 0,-0.3626 5.48182,-6.40545 12.18182,-13.42856 13.58467,-14.23981 13.13078,-13.39253 13.20147,-24.64317 0.052,-8.26972 -0.74536,-10.93131 -4.3859,-14.64074 -4.15962,-4.23835 -8.09715,-5.69857 -13.76806,-5.10584 -4.85444,0.50739 -6.26509,1.09762 -10.4314,4.3646 -3.43396,2.69272 -8.78738,10.76885 -10.57736,15.95693 -1.10981,3.21667 -1.55913,3.75929 -2.97599,3.59397 -0.91786,-0.1071 -3.18798,-1.77916 -5.04472,-3.7157 -1.85674,-1.93654 -4.7615,-4.43794 -6.45503,-5.55867 -1.82644,-1.20868 -2.9899,-2.50108 -2.85979,-3.17671 0.12441,-0.64597 2.30278,-1.94009 5.03235,-2.98958 2.64714,-1.01781 7.06229,-3.34463 9.81143,-5.17072 7.69195,-5.10929 25.52876,-14.86782 31.67136,-17.32744 3.03162,-1.21392 7.13604,-2.55542 9.12093,-2.9811 l 3.6089,-0.77397 0.48365,-23.05569 c 0.26602,-12.68064 0.96878,-43.01934 1.5617,-67.41934 0.59292,-24.4 1.4079,-59.895643 1.81106,-78.879207 0.62179,-29.27759 0.90125,-34.6837864 1.8415,-35.6240363 0.84327,-0.8432723 1.4097,-0.9190813 2.36755,-0.3168677 1.81457,1.1408423 2.10339,6.4837214 3.06173,56.638291 0.45859,24.000001 1.30423,63.05336 1.87921,86.78524 0.57497,23.73188 1.04541,47.33309 1.04541,52.44713 v 9.29824 l 5.27273,1.25654 c 7.78311,1.85478 22.80592,9.35544 37.41375,18.68013 3.92244,2.50383 9.08629,5.26518 11.47524,6.13635 5.6228,2.05045 6.59434,3.53881 3.6891,5.6516 -1.18205,0.85963 -4.39023,3.6368 -7.12928,6.17149 -3.21837,2.97824 -5.3735,4.45759 -6.09212,4.18182 -0.61161,-0.23469 -1.24889,-0.42672 -1.41617,-0.42672 -0.16729,0 -0.30876,-0.73636 -0.31439,-1.63636 -0.0147,-2.352 -5.45324,-12.05741 -8.59171,-15.33244 -3.71609,-3.87779 -7.83124,-6.12932 -12.26732,-6.71186 -5.46035,-0.71704 -8.40139,0.0784 -12.62028,3.41322 -5.29415,4.18479 -6.08246,6.42472 -5.98104,16.99472 0.0461,4.8 0.35487,9.61641 0.68625,10.70314 0.33138,1.08673 5.75706,7.1625 12.05706,13.5017 7.77684,7.82524 11.45455,12.03608 11.45455,13.11504 0,0.87406 -0.26701,1.58921 -0.59336,1.58921 -0.84257,0 -3.40604,4.8125 -4.835,9.07696 -4.75506,14.19051 -1.22434,31.39257 9.30602,45.33993 6.47888,8.58122 11.80768,10.78355 24.42859,10.09607 11.18222,-0.60912 16.4959,-2.4419 20.72855,-7.14963 9.0186,-10.03085 11.26849,-25.67001 4.34553,-30.20611 -1.66297,-1.08962 -3.25526,-1.28501 -9.13788,-1.12134 -8.88003,0.24708 -12.91285,-1.23201 -17.61312,-6.45985 -3.72722,-4.14555 -5.1162,-8.39169 -4.67225,-14.28314 0.78511,-10.41904 8.55919,-17.65653 18.96559,-17.65653 5.4201,0 7.14056,0.5929 12.96683,4.46858 8.05077,5.35543 14.64036,15.08017 16.58543,24.47631 4.10493,19.82994 -6.01048,42.42734 -24.16418,53.98179 -4.38039,2.78802 -4.35506,3.60611 0.11237,3.62851 3.51002,0.0176 13.6737,4.0644 18.76254,7.47056 8.61505,5.76637 15.24862,12.96026 19.53655,21.18674 2.04379,3.92104 2.54998,5.71354 2.5478,9.02218 -0.005,7.34486 -3.73226,11.03806 -11.14036,11.03806 -3.54991,0 -4.25975,-0.28163 -7.12703,-2.82772 l -3.18444,-2.82773 v -8.26318 c 0,-7.67655 -0.14001,-8.50136 -1.9722,-11.61799 -2.28271,-3.88298 -5.86507,-7.22281 -10.22984,-9.53723 -2.43265,-1.28992 -4.27961,-1.63086 -8.88887,-1.64083 -5.18451,-0.0112 -6.25383,0.23421 -9.81818,2.25344 -2.70373,1.53168 -4.81576,3.47608 -6.51724,6 -1.38448,2.05368 -3.07395,3.73397 -3.75438,3.73397 -0.80096,0 -2.093,-1.72233 -3.66458,-4.88501 -1.95986,-3.94404 -3.11116,-5.30636 -5.977,-7.0725 -11.44883,-7.05561 -32.25792,1.37723 -39.3949,15.96469 -2.12565,4.34467 -4.94404,17.26149 -4.3931,20.13383 0.20668,1.07756 1.50159,3.43408 2.87757,5.23672 4.26253,5.58421 4.12511,12.88722 -0.32626,17.33859 -1.16756,1.16756 -2.12284,2.28616 -2.12284,2.48577 0,0.9254 6.86238,9.13766 9.57818,11.46229 6.62324,5.66925 13.85534,7.19217 17.83581,3.75582 2.0236,-1.74697 2.02998,-1.77963 0.76783,-3.93039 -3.00314,-5.11747 -0.34726,-10.30799 5.27439,-10.30799 3.89207,0 6.54379,2.63773 6.54379,6.50926 0,4.9269 -6.79364,13.11319 -13.35491,16.09257 -4.54228,2.06259 -11.63135,1.87965 -16.1582,-0.41697 -1.96779,-0.99833 -3.62058,-1.81651 -3.67287,-1.81818 -0.0523,-0.002 -0.2279,3.03401 -0.39025,6.74596 -0.21389,4.89044 -0.70765,7.58268 -1.79297,9.77632 l -1.4978,3.02732 2.25168,0.89596 c 1.23843,0.49278 4.44053,2.29192 7.11578,3.99809 12.0973,7.71515 18.69192,23.61692 15.95073,38.4624 -1.84153,9.97318 -9.51332,20.73501 -18.3271,25.70889 l -4.05774,2.2899 3.07075,3.20481 c 4.44068,4.63455 6.36114,10.09638 6.4377,18.30903 0.0565,6.05777 -0.13313,6.99173 -2.29416,11.30049 -1.29566,2.58333 -3.98602,6.5261 -5.97859,8.76172 l -3.62286,4.06475 4.76641,2.34649 c 5.41808,2.66732 9.32517,5.83672 10.86428,8.81303 1.52352,2.94617 1.35812,9.97154 -0.29795,12.65544 -4.30632,6.97903 -11.17039,9.3774 -17.92102,6.26178 -6.91376,-3.1909 -10.14977,-11.12461 -7.30984,-17.92151 l 1.0538,-2.52209 h -2.18083 c -4.41642,0 -9.76884,4.56152 -12.8705,10.9687 -6.21849,12.84569 -6.13143,36.1407 0.18162,48.59891 3.51067,6.92797 8.33062,10.97784 13.06528,10.97784 1.80039,0 1.8019,-0.006 0.67358,-2.70651 -2.5116,-6.01109 0.55795,-14.06008 6.54061,-17.1508 3.21803,-1.66247 9.42736,-1.92882 12.1545,-0.52136 2.52879,1.30509 5.73657,4.40546 6.93853,6.70619 1.24903,2.39085 1.30593,9.83115 0.0911,11.91486 -2.99652,5.13977 -6.46553,7.63459 -13.54258,9.73947 -6.63812,1.97433 -14.41241,2.46765 -19.70437,1.25034 z m 14.75588,-149.16528 c 4.52731,-2.21892 9.61957,-7.31539 11.49055,-11.50005 2.56677,-5.74091 2.44784,-13.99766 -0.28224,-19.59331 -2.20463,-4.51867 -6.02042,-8.3695 -10.84051,-10.94004 -2.62441,-1.3996 -4.22799,-1.66618 -10.03277,-1.66787 -6.30206,-0.002 -7.25151,0.18765 -10.80641,2.15665 -3.86273,2.1395 -8.05588,6.31081 -9.9229,9.87122 -0.533,1.01644 -1.37856,3.8305 -1.87902,6.25348 -1.17513,5.68941 0.0723,12.1233 3.27387,16.88528 2.48251,3.6925 8.09135,8.2543 11.60504,9.43865 3.62488,1.22183 14.1758,0.67349 17.39439,-0.90401 z m -3.24059,-102.71819 c 0.93341,-0.60402 2.19268,-2.28431 2.79839,-3.73396 1.98864,-4.75949 -0.87469,-9.94671 -6.22587,-11.27882 -2.50625,-0.6239 -6.87517,1.37329 -8.3072,3.79752 -2.31626,3.92113 -1.03898,9.73531 2.52098,11.47544 3.81408,1.86435 6.0272,1.80185 9.2137,-0.26018 z m -1.33827,-46.36473 c 0.01,-1.30848 5.19412,-6.93678 9.63362,-10.45826 6.47034,-5.13237 14.30016,-8.82867 22.59862,-10.66832 2.04156,-0.45258 2.03722,-0.45977 -2.18182,-3.61051 -20.93099,-15.63111 -26.5787,-43.63279 -12.91077,-64.01246 l 3.3587,-5.00802 -11.54763,-11.54763 -11.54763,-11.54764 -11.2446,11.30819 c -6.18453,6.2195 -11.37122,11.45751 -11.52597,11.64002 -0.15475,0.18251 1.05696,2.38705 2.69268,4.89896 1.63572,2.51192 3.87435,6.85804 4.97473,9.65804 1.82344,4.63989 2.00369,5.96073 2.03459,14.90909 0.0264,7.6476 -0.26072,10.70249 -1.29878,13.81818 -3.53056,10.5968 -9.57114,19.28792 -17.6634,25.41391 l -4.74566,3.59256 3.1436,0.8104 c 8.65909,2.23227 12.683,4.10488 19.1436,8.9089 6.21764,4.62335 9.32989,7.88009 12.01446,12.57223 l 2.34636,4.10101 1.36026,-2.06314 c 0.74814,-1.13473 1.36241,-2.35671 1.36504,-2.71551 z"
       id="path1" />
  </g>
</svg>
